<svg width="55" height="55" viewBox="0 0 55 55" fill="none" xmlns="http://www.w3.org/2000/svg">
<g clip-path="url(#clip0_76_901)">
<path d="M25.0697 5.15587C25.7143 4.51144 26.5885 4.14941 27.5 4.14941C28.4115 4.14941 29.2857 4.51144 29.9303 5.15587L37.8125 13.0381V8.59337C37.8125 8.13753 37.9936 7.70036 38.3159 7.37803C38.6382 7.0557 39.0754 6.87462 39.5312 6.87462H42.9687C43.4246 6.87462 43.8617 7.0557 44.1841 7.37803C44.5064 7.70036 44.6875 8.13753 44.6875 8.59337V19.9131L52.7793 28.0015C52.9392 28.1613 53.0659 28.351 53.1524 28.5598C53.2389 28.7686 53.2834 28.9924 53.2834 29.2184C53.2834 29.4444 53.2389 29.6681 53.1524 29.8769C53.0659 30.0857 52.9392 30.2754 52.7793 30.4352C52.6195 30.595 52.4298 30.7218 52.221 30.8083C52.0122 30.8948 51.7885 30.9393 51.5625 30.9393C51.3365 30.9393 51.1127 30.8948 50.9039 30.8083C50.6951 30.7218 50.5054 30.595 50.3456 30.4352L27.5 7.58618L10.3125 24.7737V46.4059C10.3125 46.8617 10.4936 47.2989 10.8159 47.6212C11.1382 47.9435 11.5754 48.1246 12.0312 48.1246H25.7812C26.2371 48.1246 26.6742 48.3057 26.9966 48.628C27.3189 48.9504 27.5 49.3875 27.5 49.8434C27.5 50.2992 27.3189 50.7364 26.9966 51.0587C26.6742 51.381 26.2371 51.5621 25.7812 51.5621H12.0312C10.6637 51.5621 9.35219 51.0189 8.3852 50.0519C7.41822 49.0849 6.87497 47.7734 6.87497 46.4059V28.2112L4.65435 30.4352C4.49455 30.595 4.30483 30.7218 4.09604 30.8083C3.88725 30.8948 3.66347 30.9393 3.43747 30.9393C3.21148 30.9393 2.9877 30.8948 2.77891 30.8083C2.57011 30.7218 2.3804 30.595 2.2206 30.4352C2.0608 30.2754 1.93403 30.0857 1.84755 29.8769C1.76107 29.6681 1.71655 29.4444 1.71655 29.2184C1.71655 28.9924 1.76107 28.7686 1.84755 28.5598C1.93403 28.351 2.0608 28.1613 2.2206 28.0015L25.0697 5.15587Z" fill="white"/>
<path d="M42.9688 55C46.1596 55 49.2198 53.7324 51.4761 51.4761C53.7324 49.2198 55 46.1596 55 42.9688C55 39.7779 53.7324 36.7177 51.4761 34.4614C49.2198 32.2051 46.1596 30.9375 42.9688 30.9375C39.7779 30.9375 36.7177 32.2051 34.4614 34.4614C32.2051 36.7177 30.9375 39.7779 30.9375 42.9688C30.9375 46.1596 32.2051 49.2198 34.4614 51.4761C36.7177 53.7324 39.7779 55 42.9688 55ZM44.1856 34.8769L49.3419 40.0331C49.6646 40.3559 49.8459 40.7936 49.8459 41.25C49.8459 41.7064 49.6646 42.1441 49.3419 42.4669C49.0191 42.7896 48.5814 42.9709 48.125 42.9709C47.6686 42.9709 47.2309 42.7896 46.9081 42.4669L44.6875 40.2428V49.8438C44.6875 50.2996 44.5064 50.7368 44.1841 51.0591C43.8618 51.3814 43.4246 51.5625 42.9688 51.5625C42.5129 51.5625 42.0757 51.3814 41.7534 51.0591C41.4311 50.7368 41.25 50.2996 41.25 49.8438V40.2428L39.0294 42.4669C38.7071 42.7896 38.2698 42.9711 37.8137 42.9714C37.3576 42.9717 36.9201 42.7909 36.5973 42.4686C36.2746 42.1463 36.0931 41.709 36.0928 41.2529C36.0925 40.7968 36.2733 40.3593 36.5956 40.0366L41.7519 34.8803C41.9115 34.7203 42.1012 34.5933 42.31 34.5066C42.5188 34.42 42.7427 34.3754 42.9688 34.3754C43.1948 34.3754 43.4187 34.42 43.6275 34.5066C43.8363 34.5933 44.026 34.7203 44.1856 34.8803V34.8769Z" fill="#6A00C6"/>
</g>
<defs>
<clipPath id="clip0_76_901">
<rect width="55" height="55" fill="white"/>
</clipPath>
</defs>
</svg>
