<svg width="27" height="28" viewBox="0 0 27 28" fill="none" xmlns="http://www.w3.org/2000/svg">
<circle cx="13.5" cy="14" r="13.5" fill="#E58A7B"/>
<path d="M9.715 12.6548C10.795 14.7744 12.535 16.5045 14.6575 17.5905L16.3075 15.9428C16.51 15.7406 16.81 15.6732 17.0725 15.763C17.9125 16.0402 18.82 16.19 19.75 16.19C20.1625 16.19 20.5 16.527 20.5 16.9389V19.5528C20.5 19.9648 20.1625 20.3018 19.75 20.3018C12.7075 20.3018 7 14.6021 7 7.56929C7 7.15735 7.3375 6.82031 7.75 6.82031H10.375C10.7875 6.82031 11.125 7.15735 11.125 7.56929C11.125 8.5055 11.275 9.40427 11.5525 10.2431C11.635 10.5053 11.575 10.7974 11.365 11.0071L9.715 12.6548Z" fill="#E0FFFC"/>
</svg>
