<svg width="20" height="19" viewBox="0 0 20 19" fill="none" xmlns="http://www.w3.org/2000/svg">
<ellipse cx="10" cy="9.5" rx="10" ry="9.5" fill="#091E29"/>
<path d="M13.0775 8.21451L8.64801 12.0537C8.60943 12.0873 8.56359 12.1139 8.51312 12.1321C8.46264 12.1503 8.40852 12.1596 8.35387 12.1596C8.29921 12.1596 8.2451 12.1503 8.19462 12.1321C8.14415 12.1139 8.0983 12.0873 8.05973 12.0537L6.12184 10.3741C6.08321 10.3406 6.05257 10.3009 6.03166 10.2571C6.01076 10.2134 6 10.1665 6 10.1191C6 10.0718 6.01076 10.0249 6.03166 9.98115C6.05257 9.93741 6.08321 9.89766 6.12184 9.86418C6.16047 9.8307 6.20632 9.80414 6.25679 9.78603C6.30726 9.76791 6.36135 9.75858 6.41598 9.75858C6.47061 9.75858 6.5247 9.76791 6.57517 9.78603C6.62564 9.80414 6.6715 9.8307 6.71013 9.86418L8.35421 11.2892L12.4899 7.70521C12.5679 7.6376 12.6737 7.59961 12.784 7.59961C12.8943 7.59961 13.0001 7.6376 13.0782 7.70521C13.1562 7.77283 13.2 7.86454 13.2 7.96016C13.2 8.05579 13.1562 8.14749 13.0782 8.21511L13.0775 8.21451Z" fill="white"/>
</svg>
