<svg width="53" height="53" viewBox="0 0 53 53" fill="none" xmlns="http://www.w3.org/2000/svg">
<g clip-path="url(#clip0_2_2398)">
<path d="M2.94434 26.5001C2.94434 31.1589 4.32584 35.7132 6.91416 39.5869C9.50248 43.4606 13.1814 46.4797 17.4856 48.2626C21.7898 50.0455 26.526 50.5119 31.0954 49.603C35.6647 48.6941 39.8619 46.4507 43.1562 43.1564C46.4505 39.8621 48.6939 35.6649 49.6028 31.0956C50.5117 26.5262 50.0453 21.79 48.2624 17.4858C46.4795 13.1816 43.4603 9.50269 39.5867 6.91437C35.713 4.32605 31.1587 2.94454 26.4999 2.94454C20.2526 2.94454 14.2611 5.42628 9.8436 9.8438C5.42608 14.2613 2.94434 20.2528 2.94434 26.5001ZM47.111 26.5001C47.111 30.5766 45.9022 34.5615 43.6374 37.951C41.3726 41.3405 38.1536 43.9823 34.3874 45.5423C30.6212 47.1023 26.477 47.5105 22.4789 46.7152C18.4807 45.9199 14.8082 43.9569 11.9256 41.0744C9.04312 38.1918 7.0801 34.5193 6.28482 30.5211C5.48953 26.523 5.8977 22.3788 7.45771 18.6126C9.01771 14.8464 11.6595 11.6274 15.049 9.36258C18.4385 7.09781 22.4234 5.88898 26.4999 5.88898C31.9663 5.88898 37.2088 8.06051 41.0741 11.9258C44.9395 15.7912 47.111 21.0337 47.111 26.5001Z" fill="#091E29"/>
<path d="M12.1606 26.3824L23.3643 37.586C23.4962 37.7401 23.6586 37.8653 23.8413 37.9536C24.024 38.042 24.2229 38.0917 24.4256 38.0995C24.6284 38.1073 24.8306 38.0732 25.0195 37.9991C25.2084 37.9251 25.38 37.8129 25.5235 37.6694C25.667 37.5259 25.7792 37.3543 25.8533 37.1654C25.9273 36.9765 25.9614 36.7743 25.9536 36.5715C25.9458 36.3688 25.8961 36.1698 25.8077 35.9872C25.7194 35.8045 25.5942 35.6421 25.4401 35.5101L17.9318 27.9724H40.0151C40.4055 27.9724 40.78 27.8173 41.0561 27.5412C41.3322 27.2651 41.4873 26.8906 41.4873 26.5001C41.4873 26.1097 41.3322 25.7352 41.0561 25.4591C40.78 25.183 40.4055 25.0279 40.0151 25.0279H17.6668L25.4401 17.2546C25.5942 17.1226 25.7194 16.9602 25.8077 16.7775C25.8961 16.5949 25.9458 16.396 25.9536 16.1932C25.9614 15.9904 25.9273 15.7883 25.8533 15.5993C25.7792 15.4104 25.667 15.2388 25.5235 15.0954C25.38 14.9519 25.2084 14.8396 25.0195 14.7656C24.8306 14.6916 24.6284 14.6574 24.4256 14.6652C24.2229 14.6731 24.024 14.7227 23.8413 14.8111C23.6586 14.8995 23.4962 15.0246 23.3643 15.1788L12.1606 26.3824Z" fill="#091E29"/>
</g>
<defs>
<clipPath id="clip0_2_2398">
<rect width="53" height="53" fill="white" transform="matrix(0 -1 1 0 0 53)"/>
</clipPath>
</defs>
</svg>
