<svg width="53" height="53" viewBox="0 0 53 53" fill="none" xmlns="http://www.w3.org/2000/svg">
<g clip-path="url(#clip0_2_2402)">
<path d="M50.0557 26.5001C50.0557 31.1589 48.6742 35.7132 46.0858 39.5869C43.4975 43.4606 39.8186 46.4797 35.5144 48.2626C31.2102 50.0455 26.474 50.5119 21.9046 49.603C17.3353 48.6941 13.1381 46.4507 9.84381 43.1564C6.54951 39.8621 4.30606 35.6649 3.39716 31.0956C2.48827 26.5262 2.95475 21.79 4.73761 17.4858C6.52047 13.1816 9.53965 9.50269 13.4133 6.91437C17.287 4.32605 21.8413 2.94454 26.5001 2.94454C32.7474 2.94454 38.7389 5.42628 43.1564 9.8438C47.5739 14.2613 50.0557 20.2528 50.0557 26.5001ZM5.889 26.5001C5.889 30.5766 7.09782 34.5615 9.36259 37.951C11.6274 41.3405 14.8464 43.9823 18.6126 45.5423C22.3788 47.1023 26.523 47.5105 30.5211 46.7152C34.5193 45.9199 38.1918 43.9569 41.0744 41.0744C43.9569 38.1918 45.9199 34.5193 46.7152 30.5211C47.5105 26.523 47.1023 22.3788 45.5423 18.6126C43.9823 14.8464 41.3405 11.6274 37.951 9.36258C34.5615 7.09781 30.5766 5.88898 26.5001 5.88898C21.0337 5.88898 15.7912 8.06051 11.9259 11.9258C8.06052 15.7912 5.889 21.0337 5.889 26.5001Z" fill="#091E29"/>
<path d="M40.8394 26.3824L29.6357 37.586C29.5038 37.7401 29.3414 37.8653 29.1587 37.9536C28.976 38.042 28.7771 38.0917 28.5744 38.0995C28.3716 38.1073 28.1694 38.0732 27.9805 37.9991C27.7916 37.9251 27.62 37.8129 27.4765 37.6694C27.333 37.5259 27.2208 37.3543 27.1467 37.1654C27.0727 36.9765 27.0386 36.7743 27.0464 36.5715C27.0542 36.3688 27.1039 36.1698 27.1923 35.9872C27.2806 35.8045 27.4058 35.6421 27.5599 35.5101L35.0682 27.9724H12.9849C12.5945 27.9724 12.22 27.8173 11.9439 27.5412C11.6678 27.2651 11.5127 26.8906 11.5127 26.5001C11.5127 26.1097 11.6678 25.7352 11.9439 25.4591C12.22 25.183 12.5945 25.0279 12.9849 25.0279H35.3332L27.5599 17.2546C27.4058 17.1226 27.2806 16.9602 27.1923 16.7775C27.1039 16.5949 27.0542 16.396 27.0464 16.1932C27.0386 15.9904 27.0727 15.7883 27.1467 15.5993C27.2208 15.4104 27.333 15.2388 27.4765 15.0954C27.62 14.9519 27.7916 14.8396 27.9805 14.7656C28.1694 14.6916 28.3716 14.6574 28.5744 14.6652C28.7771 14.6731 28.976 14.7227 29.1587 14.8111C29.3414 14.8995 29.5038 15.0246 29.6357 15.1788L40.8394 26.3824Z" fill="#091E29"/>
</g>
<defs>
<clipPath id="clip0_2_2402">
<rect width="53" height="53" fill="white" transform="matrix(0 -1 -1 0 53 53)"/>
</clipPath>
</defs>
</svg>
