<svg width="57" height="57" viewBox="0 0 57 57" fill="none" xmlns="http://www.w3.org/2000/svg">
<path fill-rule="evenodd" clip-rule="evenodd" d="M19 35.9812V52.25H38V21.375C38 20.6245 37.7427 19.7838 37.2281 18.8528C36.7135 17.9218 36.1792 17.1792 35.625 16.625H28.5L19.7125 33.25C19.5162 33.6474 19.3483 34.0931 19.209 34.5871C19.0697 35.0811 19 35.5458 19 35.9812ZM33.25 21.375V47.5H23.75V35.8625L31.35 21.375H33.25Z" fill="white"/>
<path d="M21.375 16.625L23.75 11.875V9.5H21.375V4.75H35.625C36.2979 4.75 36.8624 4.978 37.3184 5.434C37.7744 5.89 38.0016 6.45367 38 7.125V9.5L35.625 14.25H28.5V11.875L23.75 16.625H21.375Z" fill="white"/>
<path d="M23.75 47.5H33.25V21.375H31.35L23.75 35.8625V47.5Z" fill="#F99F9E"/>
</svg>
