<svg width="32" height="32" viewBox="0 0 32 32" fill="none" xmlns="http://www.w3.org/2000/svg">
<path d="M16.0003 2.7207C8.66699 2.7207 2.66699 8.70737 2.66699 16.0807C2.66699 22.7474 7.54699 28.2807 13.9203 29.2807V19.9474H10.5337V16.0807H13.9203V13.134C13.9203 9.78737 15.907 7.94737 18.9603 7.94737C20.4137 7.94737 21.9337 8.2007 21.9337 8.2007V11.494H20.2537C18.6003 11.494 18.0803 12.5207 18.0803 13.574V16.0807H21.787L21.187 19.9474H18.0803V29.2807C21.2222 28.7845 24.0833 27.1814 26.1469 24.7608C28.2105 22.3402 29.3408 19.2616 29.3337 16.0807C29.3337 8.70737 23.3337 2.7207 16.0003 2.7207Z" fill="white"/>
</svg>
