<svg width="24" height="25" viewBox="0 0 24 25" fill="none" xmlns="http://www.w3.org/2000/svg">
<g clip-path="url(#clip0_696_20)">
<path fill-rule="evenodd" clip-rule="evenodd" d="M4 12.125C4.00014 10.5855 4.44451 9.07864 5.27979 7.78538C6.11506 6.49212 7.30576 5.46734 8.70901 4.83401C10.1123 4.20068 11.6684 3.9857 13.1908 4.21487C14.7132 4.44404 16.1372 5.10762 17.2918 6.12599C18.4464 7.14436 19.2826 8.47426 19.7002 9.95611C20.1177 11.438 20.0988 13.0088 19.6457 14.4802C19.1926 15.9515 18.3246 17.2609 17.1458 18.2512C15.967 19.2415 14.5275 19.8706 13 20.063V14.125H15C15.2652 14.125 15.5196 14.0196 15.7071 13.8321C15.8946 13.6446 16 13.3902 16 13.125C16 12.8598 15.8946 12.6054 15.7071 12.4179C15.5196 12.2304 15.2652 12.125 15 12.125H13V10.125C13 9.85978 13.1054 9.60543 13.2929 9.41789C13.4804 9.23036 13.7348 9.125 14 9.125H14.5C14.7652 9.125 15.0196 9.01964 15.2071 8.83211C15.3946 8.64457 15.5 8.39022 15.5 8.125C15.5 7.85978 15.3946 7.60543 15.2071 7.41789C15.0196 7.23036 14.7652 7.125 14.5 7.125H14C13.2044 7.125 12.4413 7.44107 11.8787 8.00368C11.3161 8.56629 11 9.32935 11 10.125V12.125H9C8.73478 12.125 8.48043 12.2304 8.29289 12.4179C8.10536 12.6054 8 12.8598 8 13.125C8 13.3902 8.10536 13.6446 8.29289 13.8321C8.48043 14.0196 8.73478 14.125 9 14.125H11V20.063C9.0667 19.8192 7.28882 18.8783 6 17.4167C4.71119 15.9552 4.00003 14.0736 4 12.125ZM12 22.125C17.523 22.125 22 17.648 22 12.125C22 6.602 17.523 2.125 12 2.125C6.477 2.125 2 6.602 2 12.125C2 17.648 6.477 22.125 12 22.125Z" fill="white"/>
</g>
<defs>
<clipPath id="clip0_696_20">
<rect width="24" height="24" fill="white" transform="translate(0 0.125)"/>
</clipPath>
</defs>
</svg>
