<svg width="156" height="27" viewBox="0 0 156 27" fill="none" xmlns="http://www.w3.org/2000/svg">
<path d="M5.18096 26.7375L7.38203 17.1983L0 10.7822L9.7524 9.93355L13.545 0.9375L17.3376 9.93355L27.09 10.7822L19.708 17.1983L21.909 26.7375L13.545 21.6793L5.18096 26.7375Z" fill="#FDE101"/>
<path d="M37.2708 26.7375L39.4719 17.1983L32.0898 10.7822L41.8422 9.93355L45.6348 0.9375L49.4274 9.93355L59.1798 10.7822L51.7978 17.1983L53.9989 26.7375L45.6348 21.6793L37.2708 26.7375Z" fill="#FDE101"/>
<path d="M69.3611 26.7375L71.5622 17.1983L64.1802 10.7822L73.9326 9.93355L77.7252 0.9375L81.5178 9.93355L91.2702 10.7822L83.8882 17.1983L86.0892 26.7375L77.7252 21.6793L69.3611 26.7375Z" fill="#FDE101"/>
<path d="M101.451 26.7375L103.652 17.1983L96.27 10.7822L106.022 9.93355L109.815 0.9375L113.608 9.93355L123.36 10.7822L115.978 17.1983L118.179 26.7375L109.815 21.6793L101.451 26.7375Z" fill="#FDE101"/>
<path d="M133.541 26.7375L135.742 17.1983L128.36 10.7822L138.112 9.93355L141.905 0.9375L145.697 9.93355L155.45 10.7822L148.068 17.1983L150.269 26.7375L141.905 21.6793L133.541 26.7375Z" fill="#FDE101"/>
</svg>
