<svg width="13" height="17" viewBox="0 0 13 17" fill="none" xmlns="http://www.w3.org/2000/svg">
<path d="M13 1.50027C13.0001 1.31065 12.9462 1.12492 12.8448 0.964742C12.7434 0.804568 12.5985 0.676552 12.4271 0.59563C12.2557 0.514707 12.0649 0.484212 11.8768 0.507703C11.6888 0.531194 11.5113 0.607702 11.365 0.728303L0.36583 9.78994C-0.357721 10.3859 0.0640173 11.5619 1.00144 11.5619H6.58997C6.80495 11.5619 7.01741 11.6081 7.21295 11.6975C7.40849 11.7868 7.58253 11.9173 7.72327 12.0799L11.2451 16.1527C11.8507 16.8527 13 16.4237 13 15.4977V1.50027ZM1.00144 10.5619L12.0006 1.50027V15.4977L8.4788 11.4259C8.2443 11.1548 7.95426 10.9373 7.62836 10.7882C7.30245 10.6391 6.94832 10.562 6.58997 10.5619H1.00144Z" fill="white"/>
</svg>
