<svg width="44" height="45" viewBox="0 0 44 45" fill="none" xmlns="http://www.w3.org/2000/svg">
<path fill-rule="evenodd" clip-rule="evenodd" d="M29.7917 7.375V10.4733L33.4584 13.4067V7.375H29.7917ZM36.2084 15.6067V6.91667C36.2084 5.65167 35.1818 4.625 33.9167 4.625H29.3334C28.0684 4.625 27.0417 5.65167 27.0417 6.91667V8.27333L26.2956 7.67567C25.0764 6.70008 23.5615 6.16856 22.0001 6.16856C20.4386 6.16856 18.9237 6.70008 17.7046 7.67567L2.80875 19.5923C2.52382 19.8201 2.34105 20.1518 2.30065 20.5143C2.26025 20.8769 2.36553 21.2407 2.59333 21.5256C2.82113 21.8105 3.15279 21.9933 3.51534 22.0337C3.8779 22.0741 4.24165 21.9688 4.52658 21.741L5.95841 20.5933V39.4583H3.66675C3.30208 39.4583 2.95234 39.6032 2.69448 39.8611C2.43661 40.1189 2.29175 40.4687 2.29175 40.8333C2.29175 41.198 2.43661 41.5477 2.69448 41.8056C2.95234 42.0635 3.30208 42.2083 3.66675 42.2083H40.3334C40.6981 42.2083 41.0478 42.0635 41.3057 41.8056C41.5636 41.5477 41.7084 41.198 41.7084 40.8333C41.7084 40.4687 41.5636 40.1189 41.3057 39.8611C41.0478 39.6032 40.6981 39.4583 40.3334 39.4583H38.0417V20.5933L39.4754 21.741C39.7608 21.9634 40.1224 22.0644 40.4817 22.022C40.8411 21.9796 41.1692 21.7972 41.395 21.5145C41.6208 21.2318 41.7261 20.8714 41.688 20.5116C41.6498 20.1518 41.4714 19.8215 41.1914 19.5923L36.2084 15.6067ZM35.2917 18.3933L24.5777 9.8225C23.8462 9.23697 22.9371 8.91794 22.0001 8.91794C21.0631 8.91794 20.154 9.23697 19.4224 9.8225L8.70842 18.3933V39.4583H15.1251V31.575C15.1251 30.3577 15.1251 29.3072 15.2387 28.4657C15.3597 27.5637 15.6329 26.7002 16.3333 25.9998C17.0336 25.2995 17.8989 25.0263 18.7991 24.9053C19.6406 24.7917 20.6911 24.7917 21.9102 24.7917H22.0899C23.3091 24.7917 24.3596 24.7917 25.2011 24.9053C26.1031 25.0263 26.9666 25.2995 27.6669 25.9998C28.3673 26.7002 28.6404 27.5637 28.7614 28.4657C28.8751 29.3072 28.8751 30.3577 28.8751 31.5768V39.4583H35.2917V18.3933ZM26.1251 39.4583V31.6667C26.1251 30.332 26.1214 29.4667 26.0371 28.8323C25.9564 28.2365 25.8281 28.0495 25.7217 27.945C25.6172 27.8405 25.4302 27.7103 24.8344 27.6297C24.1982 27.5453 23.3347 27.5417 22.0001 27.5417C20.6654 27.5417 19.8001 27.5453 19.1657 27.6297C18.5699 27.7103 18.3829 27.8405 18.2784 27.945C18.1739 28.0495 18.0437 28.2365 17.9631 28.8323C17.8787 29.4685 17.8751 30.332 17.8751 31.6667V39.4583H26.1251ZM22.0001 15.625C21.6991 15.625 21.4011 15.6843 21.1231 15.7994C20.8451 15.9146 20.5924 16.0834 20.3796 16.2962C20.1668 16.509 19.998 16.7616 19.8829 17.0397C19.7677 17.3177 19.7084 17.6157 19.7084 17.9167C19.7084 18.2176 19.7677 18.5156 19.8829 18.7936C19.998 19.0717 20.1668 19.3243 20.3796 19.5371C20.5924 19.7499 20.8451 19.9187 21.1231 20.0339C21.4011 20.1491 21.6991 20.2083 22.0001 20.2083C22.6079 20.2083 23.1908 19.9669 23.6205 19.5371C24.0503 19.1073 24.2917 18.5245 24.2917 17.9167C24.2917 17.3089 24.0503 16.726 23.6205 16.2962C23.1908 15.8664 22.6079 15.625 22.0001 15.625ZM16.9584 17.9167C16.9584 16.5795 17.4896 15.2972 18.4351 14.3517C19.3806 13.4062 20.6629 12.875 22.0001 12.875C23.3372 12.875 24.6196 13.4062 25.5651 14.3517C26.5106 15.2972 27.0417 16.5795 27.0417 17.9167C27.0417 19.2538 26.5106 20.5362 25.5651 21.4817C24.6196 22.4272 23.3372 22.9583 22.0001 22.9583C20.6629 22.9583 19.3806 22.4272 18.4351 21.4817C17.4896 20.5362 16.9584 19.2538 16.9584 17.9167Z" fill="white"/>
<path d="M22.0001 15.625C21.6991 15.625 21.4011 15.6843 21.1231 15.7994C20.8451 15.9146 20.5924 16.0834 20.3796 16.2962C20.1668 16.509 19.998 16.7616 19.8829 17.0397C19.7677 17.3177 19.7084 17.6157 19.7084 17.9167C19.7084 18.2176 19.7677 18.5156 19.8829 18.7936C19.998 19.0717 20.1668 19.3243 20.3796 19.5371C20.5924 19.7499 20.8451 19.9187 21.1231 20.0339C21.4011 20.1491 21.6991 20.2083 22.0001 20.2083C22.6079 20.2083 23.1908 19.9669 23.6205 19.5371C24.0503 19.1073 24.2917 18.5245 24.2917 17.9167C24.2917 17.3089 24.0503 16.726 23.6205 16.2962C23.1908 15.8664 22.6079 15.625 22.0001 15.625Z" fill="black"/>
<path d="M26.1251 39.4583V31.6667C26.1251 30.332 26.1214 29.4667 26.0371 28.8323C25.9564 28.2365 25.8281 28.0495 25.7217 27.945C25.6172 27.8405 25.4302 27.7103 24.8344 27.6297C24.1982 27.5453 23.3347 27.5417 22.0001 27.5417C20.6654 27.5417 19.8001 27.5453 19.1657 27.6297C18.5699 27.7103 18.3829 27.8405 18.2784 27.945C18.1739 28.0495 18.0437 28.2365 17.9631 28.8323C17.8787 29.4685 17.8751 30.332 17.8751 31.6667V39.4583H26.1251Z" fill="black"/>
</svg>
