<svg width="28" height="28" viewBox="0 0 28 28" fill="none" xmlns="http://www.w3.org/2000/svg">
<path d="M8.39984 0.666992H19.5998C23.8665 0.666992 27.3332 4.13366 27.3332 8.40033V19.6003C27.3332 21.6513 26.5184 23.6183 25.0681 25.0686C23.6178 26.5189 21.6508 27.3337 19.5998 27.3337H8.39984C4.13317 27.3337 0.666504 23.867 0.666504 19.6003V8.40033C0.666504 6.34932 1.48126 4.38231 2.93155 2.93203C4.38183 1.48175 6.34883 0.666992 8.39984 0.666992ZM8.13317 3.33366C6.86013 3.33366 5.63923 3.83937 4.73906 4.73955C3.83888 5.63972 3.33317 6.86062 3.33317 8.13366V19.867C3.33317 22.5203 5.47984 24.667 8.13317 24.667H19.8665C21.1395 24.667 22.3604 24.1613 23.2606 23.2611C24.1608 22.3609 24.6665 21.14 24.6665 19.867V8.13366C24.6665 5.48033 22.5198 3.33366 19.8665 3.33366H8.13317ZM20.9998 5.33366C21.4419 5.33366 21.8658 5.50925 22.1784 5.82181C22.4909 6.13438 22.6665 6.5583 22.6665 7.00033C22.6665 7.44235 22.4909 7.86628 22.1784 8.17884C21.8658 8.4914 21.4419 8.66699 20.9998 8.66699C20.5578 8.66699 20.1339 8.4914 19.8213 8.17884C19.5088 7.86628 19.3332 7.44235 19.3332 7.00033C19.3332 6.5583 19.5088 6.13438 19.8213 5.82181C20.1339 5.50925 20.5578 5.33366 20.9998 5.33366ZM13.9998 7.33366C15.7679 7.33366 17.4636 8.03604 18.7139 9.28628C19.9641 10.5365 20.6665 12.2322 20.6665 14.0003C20.6665 15.7684 19.9641 17.4641 18.7139 18.7144C17.4636 19.9646 15.7679 20.667 13.9998 20.667C12.2317 20.667 10.536 19.9646 9.28579 18.7144C8.03555 17.4641 7.33317 15.7684 7.33317 14.0003C7.33317 12.2322 8.03555 10.5365 9.28579 9.28628C10.536 8.03604 12.2317 7.33366 13.9998 7.33366ZM13.9998 10.0003C12.939 10.0003 11.9216 10.4218 11.1714 11.1719C10.4213 11.922 9.99984 12.9395 9.99984 14.0003C9.99984 15.0612 10.4213 16.0786 11.1714 16.8288C11.9216 17.5789 12.939 18.0003 13.9998 18.0003C15.0607 18.0003 16.0781 17.5789 16.8283 16.8288C17.5784 16.0786 17.9998 15.0612 17.9998 14.0003C17.9998 12.9395 17.5784 11.922 16.8283 11.1719C16.0781 10.4218 15.0607 10.0003 13.9998 10.0003Z" fill="white"/>
</svg>
