<svg width="75" height="26" viewBox="0 0 75 26" fill="none" xmlns="http://www.w3.org/2000/svg">
<path d="M12.3613 19.3809C10.7674 20.0474 9.11556 20.3383 7.40323 20.4927C7.4278 20.5799 7.43977 20.6545 7.46903 20.7215C7.9306 21.7787 8.74921 22.331 9.88747 22.446C11.3736 22.5962 12.7096 22.1618 13.9637 21.412C15.2775 20.6265 16.3261 19.5508 17.3023 18.3861C17.8327 17.7533 18.1634 17.0926 18.2224 16.2427C18.2935 15.2183 18.6406 14.2466 19.168 13.3547C19.9868 11.9698 21.1396 11.0268 22.7435 10.6969C23.5137 10.5384 24.2904 10.514 25.0609 10.6752C26.0769 10.8877 26.9009 11.4221 27.5428 12.2373C27.6141 12.3277 27.6836 12.4196 27.752 12.5082C27.7738 12.4993 27.7858 12.4966 27.7949 12.49C27.8027 12.4843 27.8114 12.4746 27.8123 12.4658C27.8162 12.4313 27.819 12.3965 27.8191 12.3618C27.8202 10.3063 27.821 8.25071 27.8222 6.19516C27.8222 6.18387 27.8269 6.17255 27.8296 6.1613C27.8324 6.15003 27.8355 6.13883 27.8495 6.08564C29.0268 6.0589 30.2159 6.08066 31.398 6.07219C31.4745 6.34547 31.5059 23.9598 31.4356 24.6341C30.2958 24.6341 29.1534 24.6341 27.9682 24.6341C27.9682 24.0463 27.9682 23.4646 27.9682 22.8829C27.9478 22.8782 27.9274 22.8734 27.9071 22.8686C27.8393 22.9563 27.7677 23.0412 27.7042 23.1319C26.6199 24.6813 25.0885 25.2078 23.2715 25.0447C21.3774 24.8746 20.0682 23.8111 19.0975 22.2516C19.0247 22.1347 18.9557 22.0155 18.8842 21.8961C18.4343 22.3081 18.0104 22.722 17.5597 23.1042C16.1426 24.3058 14.5646 25.2125 12.7499 25.6729C11.3891 26.0181 10.0192 26.079 8.64649 25.766C6.75516 25.3348 5.35692 24.2468 4.477 22.521C4.20429 21.9861 4.01452 21.4089 3.78851 20.8504C3.75419 20.7656 3.7293 20.6769 3.69716 20.5815C2.4709 20.5473 1.2568 20.5134 0 20.4783C0.0275147 19.3149 0.0542997 18.1824 0.0823015 16.9984C1.14131 17.0264 2.18002 17.0538 3.25115 17.082C3.27609 16.7885 3.29523 16.5151 3.32312 16.2427C3.51254 14.3928 4.1529 12.6813 4.93001 11.0116C5.47795 9.83424 6.19027 8.76595 7.05692 7.80043C7.97442 6.77825 9.00673 5.89681 10.2981 5.38929C12.7498 4.4258 14.9788 4.85192 16.9227 6.60787C18.2527 7.80927 18.7512 9.38154 18.6432 11.1367C18.473 13.9031 17.151 16.0663 15.0395 17.7897C14.234 18.4472 13.3438 18.9668 12.3613 19.3809ZM14.1827 8.85393C13.2207 8.22796 12.2335 8.22213 11.2595 8.79433C10.8433 9.03882 10.4521 9.34377 10.0991 9.67423C9.21677 10.5003 8.54171 11.4831 8.04112 12.5837C7.47296 13.8328 6.96711 15.1024 6.80345 16.4798C6.78245 16.6566 6.78131 16.8357 6.77019 17.0271C7.63589 16.996 8.43996 16.8867 9.23427 16.7151C10.6252 16.4146 11.9162 15.891 13.0079 14.9496C14.2217 13.9029 15.0418 12.6378 15.1632 10.9957C15.2274 10.1265 14.9808 9.38998 14.1827 8.85393ZM22.2723 20.4168C22.6666 21.2552 23.2736 21.841 24.2188 21.981C24.5596 22.0315 24.916 22.0392 25.2586 22.0032C26.0638 21.9186 26.7207 21.5415 27.1502 20.8476C27.3675 20.4965 27.5478 20.111 27.6764 19.7187C27.9748 18.8082 27.9562 17.8659 27.8524 16.9262C27.7779 16.2512 27.6006 15.6028 27.2211 15.0286C26.5714 14.0455 25.6469 13.6272 24.4813 13.7265C23.4161 13.8173 22.7045 14.3928 22.278 15.351C22.2121 15.4991 22.1536 15.6508 22.098 15.8031C21.8967 16.3536 21.8151 16.9277 21.7912 17.5088C21.7508 18.4919 21.8462 19.456 22.2723 20.4168Z" fill="#0B69FE"/>
<path d="M44.8178 14.7764C45.2318 16.7391 45.6409 18.6727 46.05 20.6064C46.0761 20.6051 46.1022 20.6038 46.1282 20.6026C46.4803 18.9895 46.8337 17.3768 47.1839 15.7634C47.5328 14.156 47.8785 12.5479 48.2259 10.9386C49.479 10.9386 50.6959 10.9386 51.9129 10.9386C51.9125 11.2473 48.4786 23.2188 47.9866 24.6342C46.7705 24.6342 45.546 24.6342 44.2939 24.6342C43.5871 21.359 42.8807 18.0852 42.1742 14.8113C42.1536 14.8097 42.1331 14.8081 42.1125 14.8065C41.3975 18.0806 40.6825 21.3547 39.965 24.6403C38.7137 24.6403 37.4874 24.6403 36.2243 24.6403C34.9465 20.0934 33.6673 15.5415 32.3882 10.9897C32.6558 10.9133 35.8013 10.895 36.2392 10.963C36.5889 12.5626 36.9411 14.1699 37.2914 15.7777C37.6415 17.3848 37.9898 18.9923 38.4046 20.5974C39.0501 17.3868 39.6957 14.1761 40.3447 10.9479C41.5642 10.9479 42.7665 10.9479 44.0011 10.9479C44.271 12.2108 44.542 13.4791 44.8178 14.7764Z" fill="#0C69FE"/>
<path d="M56.8082 20.1344C56.8082 20.3654 56.8082 20.5619 56.8082 20.7936C56.9245 20.7621 57.0127 20.7454 57.0955 20.7145C58.2816 20.271 59.1778 19.5006 59.6892 18.3325C59.9912 17.6428 60.2341 16.9275 60.5148 16.2282C60.7178 15.7226 60.9133 15.2114 61.1573 14.7255C61.9815 13.0839 63.3177 12.0951 65.1026 11.6969C66.6666 11.348 68.1931 11.4508 69.6724 12.0838C70.9023 12.61 71.7989 13.5144 72.512 14.6208C73.3221 15.8778 73.7951 17.2667 74.1 18.719C74.4981 20.6148 74.5996 22.5367 74.5887 24.4676C74.5885 24.5007 74.5768 24.5337 74.5661 24.5897C73.424 24.5897 72.283 24.5897 71.1053 24.5897C71.1053 24.4506 71.1054 24.326 71.1053 24.2015C71.1041 22.8531 71.038 21.509 70.825 20.1758C70.6654 19.176 70.4348 18.1937 69.9939 17.2757C69.8338 16.9423 69.6417 16.6223 69.4428 16.3099C68.8848 15.4337 68.0477 15.0504 67.0398 14.9901C66.5248 14.9593 66.0214 15.0327 65.5299 15.1903C65.0086 15.3575 64.5993 15.6692 64.3477 16.1561C64.1619 16.5159 63.9981 16.8888 63.85 17.2659C63.6127 17.8704 63.4027 18.4855 63.1706 19.0921C62.1217 21.8322 60.1403 23.5323 57.3362 24.3114C57.2467 24.3363 57.1582 24.3711 57.067 24.3813C56.9008 24.4 56.7875 24.4713 56.7776 24.6473C55.5664 24.6473 54.3839 24.6473 53.1782 24.6473C53.1782 20.0784 53.1782 15.5205 53.1782 10.9443C54.38 10.9443 55.5712 10.9443 56.8082 10.9443C56.8082 14.0006 56.8082 17.0504 56.8082 20.1344Z" fill="#0B69FE"/>
<path d="M67.6318 10.8088C64.7475 11.451 61.8902 9.65331 61.2146 6.76846C60.8157 5.06516 61.0749 3.46337 62.1385 2.04623C63.7422 -0.0904732 66.6919 -0.631816 69.0325 0.793003C70.7289 1.82576 71.7329 3.34564 71.8321 5.34316C71.9371 7.45811 71.0152 9.08283 69.206 10.1911C68.7282 10.4838 68.2086 10.6821 67.6318 10.8088ZM66.322 2.91776C65.1496 2.92997 64.2695 3.61829 64.0304 4.75739C63.9605 5.09082 63.9551 5.45228 63.9956 5.79191C64.1613 7.18292 65.3544 8.1593 66.7457 8.01508C67.983 7.88682 68.9488 6.83075 68.9381 5.59084C68.9266 4.25058 67.7704 3.04055 66.322 2.91776Z" fill="#0C69FE"/>
<path d="M54.7941 5.92994C55.4755 5.92994 56.122 5.92994 56.7884 5.92994C56.7884 7.0477 56.7884 8.13084 56.7884 9.23474C55.5854 9.23474 54.3956 9.23474 53.1802 9.23474C53.1802 8.14265 53.1802 7.04917 53.1802 5.92993C53.7188 5.92993 54.239 5.92993 54.7941 5.92994Z" fill="#0D6AFE"/>
</svg>
