<svg width="52" height="52" viewBox="0 0 52 52" fill="none" xmlns="http://www.w3.org/2000/svg">
<path d="M34.6667 4.33301C28.6867 4.33301 23.8334 9.18634 23.8334 15.1663C23.8334 21.1463 28.6867 25.9997 34.6667 25.9997C40.6467 25.9997 45.5001 21.1463 45.5001 15.1663C45.5001 9.18634 40.6467 4.33301 34.6667 4.33301ZM34.6667 21.6663C31.0701 21.6663 28.1667 18.763 28.1667 15.1663C28.1667 11.5697 31.0701 8.66634 34.6667 8.66634C38.2634 8.66634 41.1667 11.5697 41.1667 15.1663C41.1667 18.763 38.2634 21.6663 34.6667 21.6663ZM41.1667 34.6663H36.8334C36.8334 32.0663 35.2084 29.7263 32.7817 28.8163L19.4351 23.833H2.16675V47.6663H15.1667V44.5463L30.3334 48.7497L47.6667 43.333V41.1663C47.6667 37.5697 44.7634 34.6663 41.1667 34.6663ZM10.8334 43.333H6.50008V28.1663H10.8334V43.333ZM30.2684 44.2213L15.1667 40.083V28.1663H18.6551L31.2651 32.868C32.0018 33.1497 32.5001 33.8647 32.5001 34.6663C32.5001 34.6663 28.1667 34.558 27.5167 34.3413L22.3601 32.6297L20.9951 36.7463L26.1517 38.458C27.2567 38.8263 28.4051 38.9997 29.5751 38.9997H41.1667C42.0117 38.9997 42.7701 39.5197 43.1167 40.2347L30.2684 44.2213Z" fill="white"/>
<path d="M34.6667 21.6663C31.0701 21.6663 28.1667 18.763 28.1667 15.1663C28.1667 11.5697 31.0701 8.66634 34.6667 8.66634C38.2634 8.66634 41.1667 11.5697 41.1667 15.1663C41.1667 18.763 38.2634 21.6663 34.6667 21.6663Z" fill="#FDE101"/>
</svg>
