<svg width="14" height="14" viewBox="0 0 14 14" fill="none" xmlns="http://www.w3.org/2000/svg">
<path d="M2.7316 5.8425C3.8116 7.965 5.5516 9.6975 7.6741 10.785L9.3241 9.135C9.5266 8.9325 9.8266 8.865 10.0891 8.955C10.9291 9.2325 11.8366 9.3825 12.7666 9.3825C13.1791 9.3825 13.5166 9.72 13.5166 10.1325V12.75C13.5166 13.1625 13.1791 13.5 12.7666 13.5C5.7241 13.5 0.0166016 7.7925 0.0166016 0.75C0.0166016 0.3375 0.354102 0 0.766602 0H3.3916C3.8041 0 4.1416 0.3375 4.1416 0.75C4.1416 1.6875 4.2916 2.5875 4.5691 3.4275C4.6516 3.69 4.5916 3.9825 4.3816 4.1925L2.7316 5.8425Z" fill="#979797"/>
</svg>
