<svg width="27" height="28" viewBox="0 0 27 28" fill="none" xmlns="http://www.w3.org/2000/svg">
<path d="M9.38667 26.7203C10.6667 27.107 11.96 27.3337 13.3333 27.3337C16.8696 27.3337 20.2609 25.9289 22.7614 23.4284C25.2619 20.9279 26.6667 17.5365 26.6667 14.0003C26.6667 12.2494 26.3218 10.5156 25.6517 8.89788C24.9817 7.28021 23.9995 5.81035 22.7614 4.57224C21.5233 3.33412 20.0535 2.35199 18.4358 1.68193C16.8181 1.01187 15.0843 0.666992 13.3333 0.666992C11.5824 0.666992 9.84856 1.01187 8.23089 1.68193C6.61321 2.35199 5.14336 3.33412 3.90524 4.57224C1.40476 7.07272 0 10.4641 0 14.0003C0 19.667 3.56 24.5337 8.58667 26.4537C8.46667 25.4137 8.34667 23.6937 8.58667 22.507L10.12 15.9203C10.12 15.9203 9.73333 15.147 9.73333 13.9203C9.73333 12.0803 10.88 10.707 12.1867 10.707C13.3333 10.707 13.8667 11.547 13.8667 12.627C13.8667 13.7737 13.1067 15.4137 12.72 16.987C12.4933 18.2937 13.4133 19.4403 14.7467 19.4403C17.12 19.4403 18.96 16.907 18.96 13.3337C18.96 10.1337 16.6667 7.94699 13.3733 7.94699C9.61333 7.94699 7.4 10.747 7.4 13.6937C7.4 14.8403 7.77333 16.0003 8.38667 16.7603C8.50667 16.8403 8.50667 16.947 8.46667 17.147L8.08 18.6003C8.08 18.827 7.93333 18.907 7.70667 18.747C6 18.0003 5.01333 15.5737 5.01333 13.6137C5.01333 9.40033 8 5.57366 13.76 5.57366C18.3467 5.57366 21.92 8.86699 21.92 13.2403C21.92 17.827 19.08 21.507 15.0133 21.507C13.72 21.507 12.4533 20.8137 12 20.0003L11.1067 23.1603C10.8 24.307 9.96 25.8403 9.38667 26.7603V26.7203Z" fill="white"/>
</svg>
