<svg width="57" height="57" viewBox="0 0 57 57" fill="none" xmlns="http://www.w3.org/2000/svg">
<path d="M0.619048 56.9372C7.91539 56.8566 15.1243 55.3267 21.8341 52.4349C28.5439 49.5432 34.6233 45.3461 39.7251 40.0834C44.8269 34.8207 48.8512 28.5954 51.5682 21.7629C54.2853 14.9305 55.6419 7.6247 55.5605 0.262695L-0.000224923 0.876449L0.619048 56.9372Z" fill="#091E29"/>
<path d="M30.2531 29.0667C28.9133 29.0667 27.6035 28.6943 26.4895 27.9967C25.3754 27.299 24.5071 26.3073 23.9943 25.1471C23.4816 23.9869 23.3474 22.7102 23.6088 21.4786C23.8702 20.2469 24.5154 19.1155 25.4629 18.2275C26.4103 17.3396 27.6174 16.7348 28.9315 16.4898C30.2456 16.2448 31.6078 16.3706 32.8456 16.8512C34.0835 17.3317 35.1415 18.1456 35.8859 19.1897C36.6303 20.2339 37.0276 21.4615 37.0276 22.7173L37.0586 23.6243C37.0586 26.9923 35.6311 30.2223 33.0902 32.6038C30.5493 34.9853 27.103 36.3232 23.5096 36.3232V32.695C24.7811 32.6982 26.0406 32.4651 27.2154 32.0092C28.3902 31.5534 29.4569 30.8838 30.3538 30.0391C30.7024 29.713 31.024 29.3624 31.3158 28.9905C30.9693 29.0413 30.6151 29.0685 30.2551 29.0685L30.2531 29.0667ZM12.8331 29.0667C11.4932 29.0667 10.1834 28.6943 9.06937 27.9967C7.95532 27.299 7.08702 26.3073 6.57427 25.1471C6.06153 23.9869 5.92737 22.7102 6.18876 21.4786C6.45016 20.2469 7.09537 19.1155 8.04279 18.2275C8.99022 17.3396 10.1973 16.7348 11.5114 16.4898C12.8256 16.2448 14.1877 16.3706 15.4255 16.8512C16.6634 17.3317 17.7215 18.1456 18.4658 19.1897C19.2102 20.2339 19.6075 21.4615 19.6075 22.7173L19.6385 23.6243C19.6385 26.9923 18.211 30.2223 15.6701 32.6038C13.1292 34.9853 9.68297 36.3232 6.08956 36.3232V32.695C7.36103 32.6982 8.62056 32.4651 9.79533 32.0092C10.9701 31.5534 12.0368 30.8838 12.9337 30.0391C13.2823 29.713 13.6039 29.3624 13.8957 28.9905C13.5492 29.0413 13.195 29.0667 12.8331 29.0667Z" fill="#F8F9FE"/>
</svg>
