<svg width="49" height="49" viewBox="0 0 49 49" fill="none" xmlns="http://www.w3.org/2000/svg">
<path d="M12.25 6.125V12.25H6.125V6.125H12.25ZM3.0625 3.0625V15.3125H15.3125V3.0625H3.0625ZM27.5625 10.7188V16.8438H21.4375V10.7188H27.5625ZM18.375 7.65625V19.9062H30.625V7.65625H18.375ZM12.25 24.5V30.625H6.125V24.5H12.25ZM3.0625 21.4375V33.6875H15.3125V21.4375H3.0625Z" fill="#F99F9E"/>
<path d="M33.6875 15.3125V24.5H24.5V33.6875H15.3125V45.9375H45.9375V15.3125H33.6875ZM27.5625 27.5625H33.6875V33.6875H27.5625V27.5625ZM24.5 42.875H18.375V36.75H24.5V42.875ZM33.6875 42.875H27.5625V36.75H33.6875V42.875ZM42.875 42.875H36.75V36.75H42.875V42.875ZM42.875 33.6875H36.75V27.5625H42.875V33.6875ZM36.75 24.5V18.375H42.875V24.5H36.75Z" fill="#302E2E" fill-opacity="0.7"/>
</svg>
