<svg width="57" height="57" viewBox="0 0 57 57" fill="none" xmlns="http://www.w3.org/2000/svg">
<path fill-rule="evenodd" clip-rule="evenodd" d="M38.5938 8.90625V12.92L43.3438 16.72V8.90625H38.5938ZM46.9062 19.57V8.3125C46.9062 6.67375 45.5762 5.34375 43.9375 5.34375H38C36.3613 5.34375 35.0312 6.67375 35.0312 8.3125V10.07L34.0646 9.29575C32.4853 8.03193 30.5228 7.34336 28.5 7.34336C26.4772 7.34336 24.5147 8.03193 22.9354 9.29575L3.6385 24.7332C3.26938 25.0284 3.03262 25.458 2.98028 25.9277C2.92795 26.3973 3.06433 26.8686 3.35944 27.2377C3.65454 27.6068 4.08419 27.8436 4.55386 27.8959C5.02353 27.9482 5.49476 27.8119 5.86388 27.5168L7.71875 26.03V50.4688H4.75C4.27758 50.4688 3.82452 50.6564 3.49047 50.9905C3.15642 51.3245 2.96875 51.7776 2.96875 52.25C2.96875 52.7224 3.15642 53.1755 3.49047 53.5095C3.82452 53.8436 4.27758 54.0312 4.75 54.0312H52.25C52.7224 54.0312 53.1755 53.8436 53.5095 53.5095C53.8436 53.1755 54.0312 52.7224 54.0312 52.25C54.0312 51.7776 53.8436 51.3245 53.5095 50.9905C53.1755 50.6564 52.7224 50.4688 52.25 50.4688H49.2812V26.03L51.1385 27.5168C51.5082 27.8049 51.9766 27.9356 52.4421 27.8807C52.9076 27.8258 53.3327 27.5896 53.6252 27.2233C53.9178 26.8571 54.0541 26.3903 54.0047 25.9241C53.9554 25.458 53.7243 25.0301 53.3615 24.7332L46.9062 19.57ZM45.7188 23.18L31.8393 12.0769C30.8916 11.3183 29.7139 10.9051 28.5 10.9051C27.2861 10.9051 26.1084 11.3183 25.1607 12.0769L11.2812 23.18V50.4688H19.5938V40.2563C19.5938 38.6793 19.5938 37.3184 19.741 36.2282C19.8978 35.0597 20.2516 33.9411 21.1589 33.0339C22.0661 32.1266 23.1871 31.7728 24.3532 31.616C25.4434 31.4688 26.8043 31.4688 28.3836 31.4688H28.6164C30.1957 31.4688 31.5566 31.4688 32.6468 31.616C33.8153 31.7728 34.9339 32.1266 35.8411 33.0339C36.7484 33.9411 37.1022 35.0597 37.259 36.2282C37.4062 37.3184 37.4062 38.6792 37.4062 40.2586V50.4688H45.7188V23.18ZM33.8438 50.4688V40.375C33.8438 38.646 33.839 37.525 33.7297 36.7033C33.6252 35.9314 33.459 35.6891 33.3212 35.5538C33.1859 35.4184 32.9436 35.2498 32.1717 35.1453C31.3476 35.036 30.229 35.0312 28.5 35.0312C26.771 35.0312 25.65 35.036 24.8283 35.1453C24.0564 35.2498 23.8141 35.4184 23.6788 35.5538C23.5434 35.6891 23.3748 35.9314 23.2703 36.7033C23.161 37.5274 23.1562 38.646 23.1562 40.375V50.4688H33.8438ZM28.5 19.5938C28.1101 19.5938 27.7241 19.6705 27.3639 19.8197C27.0037 19.9689 26.6765 20.1876 26.4008 20.4633C26.1251 20.739 25.9064 21.0662 25.7572 21.4264C25.608 21.7866 25.5312 22.1726 25.5312 22.5625C25.5312 22.9524 25.608 23.3384 25.7572 23.6986C25.9064 24.0588 26.1251 24.386 26.4008 24.6617C26.6765 24.9374 27.0037 25.1561 27.3639 25.3053C27.7241 25.4545 28.1101 25.5312 28.5 25.5312C29.2874 25.5312 30.0425 25.2185 30.5992 24.6617C31.156 24.105 31.4688 23.3499 31.4688 22.5625C31.4688 21.7751 31.156 21.02 30.5992 20.4633C30.0425 19.9065 29.2874 19.5938 28.5 19.5938ZM21.9688 22.5625C21.9688 20.8303 22.6569 19.1691 23.8817 17.9442C25.1066 16.7194 26.7678 16.0312 28.5 16.0312C30.2322 16.0312 31.8934 16.7194 33.1183 17.9442C34.3431 19.1691 35.0312 20.8303 35.0312 22.5625C35.0312 24.2947 34.3431 25.9559 33.1183 27.1808C31.8934 28.4056 30.2322 29.0938 28.5 29.0938C26.7678 29.0938 25.1066 28.4056 23.8817 27.1808C22.6569 25.9559 21.9688 24.2947 21.9688 22.5625Z" fill="black"/>
<path d="M28.5 19.5938C28.1101 19.5938 27.7241 19.6705 27.3639 19.8197C27.0037 19.9689 26.6765 20.1876 26.4008 20.4633C26.1251 20.739 25.9064 21.0662 25.7572 21.4264C25.608 21.7866 25.5312 22.1726 25.5312 22.5625C25.5312 22.9524 25.608 23.3384 25.7572 23.6986C25.9064 24.0588 26.1251 24.386 26.4008 24.6617C26.6765 24.9374 27.0037 25.1561 27.3639 25.3053C27.7241 25.4545 28.1101 25.5312 28.5 25.5312C29.2874 25.5312 30.0425 25.2185 30.5992 24.6617C31.156 24.105 31.4688 23.3499 31.4688 22.5625C31.4688 21.7751 31.156 21.02 30.5992 20.4633C30.0425 19.9065 29.2874 19.5938 28.5 19.5938Z" fill="#F99F9E"/>
<path d="M33.8438 50.4688V40.375C33.8438 38.646 33.839 37.525 33.7297 36.7033C33.6252 35.9314 33.459 35.6891 33.3212 35.5538C33.1859 35.4184 32.9436 35.2498 32.1717 35.1453C31.3476 35.036 30.229 35.0312 28.5 35.0312C26.771 35.0312 25.65 35.036 24.8283 35.1453C24.0564 35.2498 23.8141 35.4184 23.6788 35.5538C23.5434 35.6891 23.3748 35.9314 23.2703 36.7033C23.161 37.5274 23.1562 38.646 23.1562 40.375V50.4688H33.8438Z" fill="#F99F9E"/>
</svg>
