<svg width="57" height="57" viewBox="0 0 57 57" fill="none" xmlns="http://www.w3.org/2000/svg">
<path d="M9.61481 31.413C9.40881 31.2561 9.20714 31.0935 9.01004 30.9256C9.15083 31.1513 9.35717 31.3263 9.61481 31.413ZM11.1367 8.86946H45.7403V29.1136C46.9532 28.441 47.6047 27.9827 48.0511 27.6891V7.71065C48.0508 7.40396 47.9287 7.10994 47.7117 6.89319C47.4948 6.67644 47.2006 6.55469 46.894 6.55469H9.97961C9.3395 6.55469 8.8208 7.07339 8.8208 7.71065V27.7404C9.26027 28.0175 9.89126 28.482 11.1367 29.1768V8.86946Z" fill="black"/>
<path d="M50.0407 27.3478C49.7426 27.1101 49.3299 27.1112 48.675 27.3478C48.484 27.4173 48.2908 27.533 48.0508 27.6898C47.6045 27.9833 46.9536 28.4416 45.7401 29.1142C45.3656 29.3194 44.9574 29.5406 44.4627 29.7885C44.3076 29.866 44.1583 29.9293 44.005 30.0034C41.216 31.3167 38.7074 31.7385 38.7074 31.7385H30.3996C30.2423 31.7385 29.7384 31.8354 29.4968 32.1996C29.2585 32.5633 29.2984 33.1629 29.2984 33.1629V34.1752C29.5982 34.3878 29.9151 34.5782 30.2646 34.6985C32.7691 35.5523 34.4637 34.8079 35.203 33.7705C36.0677 32.5541 36.5078 31.873 37.4574 32.2287C38.407 32.5844 37.4574 34.8963 36.2718 36.0836C35.0833 37.2715 33.6589 38.2205 31.6434 38.2205C30.7964 38.2205 29.9756 38.0934 29.2984 37.9492V46.5739C29.2984 49.0078 31.8851 50.3085 33.6635 50.3085C35.4413 50.3085 39.0027 49.3007 40.7241 45.0286C42.4438 40.7576 40.6072 35.1214 40.6072 35.1214C40.6072 35.1214 43.3934 33.8726 46.3021 32.0354C49.2079 30.1972 49.9814 28.4752 50.0407 28.2335C50.0977 27.9902 50.3348 27.586 50.0407 27.3478Z" fill="#FDE101"/>
<path fill-rule="evenodd" clip-rule="evenodd" d="M31.1294 21.1098C32.0976 20.1417 33.4107 19.5978 34.7799 19.5977C37.6287 19.5977 39.9395 21.9101 39.9395 24.7601C39.9395 27.6096 37.6287 29.9221 34.7799 29.9221C31.9282 29.9221 29.6168 27.6096 29.6168 24.7601C29.6171 23.391 30.1612 22.078 31.1294 21.1098Z" fill="black"/>
<path d="M36.2721 36.0832C37.4577 34.8959 38.4073 32.584 37.4577 32.2283C36.5081 31.8726 36.0681 32.5538 35.2034 33.7701C34.4641 34.8075 32.7695 35.552 30.2649 34.6981C29.9155 34.5778 29.5986 34.3874 29.2987 34.1748C28.0618 33.2953 27.22 31.8726 26.6004 31.8726H18.2926C18.2926 31.8726 15.9881 31.4827 13.3427 30.296C13.0771 30.1763 12.8098 30.0577 12.5385 29.9215C12.0655 29.6844 11.5982 29.4362 11.1368 29.1771C9.89138 28.4822 9.26039 28.0183 8.82092 27.7407C8.63795 27.625 8.48291 27.5383 8.32445 27.4813C7.67237 27.2442 7.25684 27.2442 6.95987 27.4813C6.66461 27.7196 6.90059 28.1243 6.95987 28.3665C7.00547 28.5518 7.48028 29.6114 9.00959 30.9258C9.54299 31.379 10.1073 31.7944 10.6985 32.169C13.6044 34.0084 16.3934 35.2538 16.3934 35.2538C16.3934 35.2538 14.554 40.8889 16.2765 45.161C17.9968 49.4326 21.5564 50.4449 23.336 50.4449C25.1161 50.4449 27.7027 49.1356 27.7027 46.7034V37.5088C27.7027 37.5088 28.3594 37.7482 29.2982 37.9482C29.9753 38.0924 30.7961 38.2196 31.6432 38.2196C33.6592 38.2201 35.0837 37.2711 36.2721 36.0832Z" fill="#0B69FF"/>
<path d="M22.5401 19.5977C19.6901 19.5977 17.3799 21.9101 17.3799 24.7601C17.3799 27.6096 19.6895 29.9221 22.5401 29.9221C25.3918 29.9221 27.7032 27.6096 27.7032 24.7601C27.7032 21.9101 25.3918 19.5977 22.5401 19.5977Z" fill="black"/>
</svg>
