<svg width="52" height="52" viewBox="0 0 52 52" fill="none" xmlns="http://www.w3.org/2000/svg">
<path d="M33.5835 36.833C30.5502 36.833 28.1668 34.4497 28.1668 31.4163C28.1668 28.383 30.5502 25.9997 33.5835 25.9997C36.6168 25.9997 39.0002 28.383 39.0002 31.4163C39.0002 34.4497 36.6168 36.833 33.5835 36.833Z" fill="#45CD81"/>
<path fill-rule="evenodd" clip-rule="evenodd" d="M43.3335 31.4163C43.3335 33.3663 42.6835 35.0997 41.8168 36.6163L48.7502 43.5497L45.7168 46.583L38.7835 39.6497C37.2668 40.5163 35.5335 41.1663 33.5835 41.1663C28.1668 41.1663 23.8335 36.833 23.8335 31.4163C23.8335 25.9997 28.1668 21.6663 33.5835 21.6663C39.0002 21.6663 43.3335 25.9997 43.3335 31.4163ZM28.1668 31.4163C28.1668 34.4497 30.5502 36.833 33.5835 36.833C36.6168 36.833 39.0002 34.4497 39.0002 31.4163C39.0002 28.383 36.6168 25.9997 33.5835 25.9997C30.5502 25.9997 28.1668 28.383 28.1668 31.4163Z" fill="black"/>
<path d="M26.0002 43.333V47.6663C14.0402 47.6663 4.3335 37.9597 4.3335 25.9997C4.3335 14.0397 14.0402 4.33301 26.0002 4.33301C36.4868 4.33301 45.2185 11.7863 47.2335 21.6663H42.7485C42.0727 19.0487 40.794 16.6253 39.0145 14.59C37.2351 12.5547 35.0042 10.9639 32.5002 9.94467V10.833C32.5002 13.2163 30.5502 15.1663 28.1668 15.1663H23.8335V19.4997C23.8335 20.6913 22.8585 21.6663 21.6668 21.6663H17.3335V25.9997H21.6668V32.4997H19.5002L9.12183 22.1213C8.84016 23.378 8.66683 24.6563 8.66683 25.9997C8.66683 35.5547 16.4452 43.333 26.0002 43.333Z" fill="black"/>
</svg>
