<svg width="52" height="52" viewBox="0 0 52 52" fill="none" xmlns="http://www.w3.org/2000/svg">
<path d="M34.6665 4.33301C28.6865 4.33301 23.8332 9.18634 23.8332 15.1663C23.8332 21.1463 28.6865 25.9997 34.6665 25.9997C40.6465 25.9997 45.4998 21.1463 45.4998 15.1663C45.4998 9.18634 40.6465 4.33301 34.6665 4.33301ZM34.6665 21.6663C31.0698 21.6663 28.1665 18.763 28.1665 15.1663C28.1665 11.5697 31.0698 8.66634 34.6665 8.66634C38.2632 8.66634 41.1665 11.5697 41.1665 15.1663C41.1665 18.763 38.2632 21.6663 34.6665 21.6663ZM41.1665 34.6663H36.8332C36.8332 32.0663 35.2082 29.7263 32.7815 28.8163L19.4348 23.833H2.1665V47.6663H15.1665V44.5463L30.3332 48.7497L47.6665 43.333V41.1663C47.6665 37.5697 44.7632 34.6663 41.1665 34.6663ZM10.8332 43.333H6.49984V28.1663H10.8332V43.333ZM30.2682 44.2213L15.1665 40.083V28.1663H18.6548L31.2648 32.868C32.0015 33.1497 32.4998 33.8647 32.4998 34.6663C32.4998 34.6663 28.1665 34.558 27.5165 34.3413L22.3598 32.6297L20.9948 36.7463L26.1515 38.458C27.2565 38.8263 28.4048 38.9997 29.5748 38.9997H41.1665C42.0115 38.9997 42.7698 39.5197 43.1165 40.2347L30.2682 44.2213Z" fill="black"/>
<path d="M34.6665 21.6663C31.0698 21.6663 28.1665 18.763 28.1665 15.1663C28.1665 11.5697 31.0698 8.66634 34.6665 8.66634C38.2632 8.66634 41.1665 11.5697 41.1665 15.1663C41.1665 18.763 38.2632 21.6663 34.6665 21.6663Z" fill="#FDE101"/>
</svg>
