<svg width="55" height="55" viewBox="0 0 55 55" fill="none" xmlns="http://www.w3.org/2000/svg">
<g clip-path="url(#clip0_38_499)">
<path d="M25.0699 5.15587C25.7145 4.51144 26.5887 4.14941 27.5002 4.14941C28.4117 4.14941 29.2859 4.51144 29.9305 5.15587L37.8127 13.0381V8.59337C37.8127 8.13753 37.9938 7.70036 38.3161 7.37803C38.6385 7.0557 39.0756 6.87462 39.5315 6.87462H42.969C43.4248 6.87462 43.862 7.0557 44.1843 7.37803C44.5066 7.70036 44.6877 8.13753 44.6877 8.59337V19.9131L52.7796 28.0015C52.9394 28.1613 53.0662 28.351 53.1526 28.5598C53.2391 28.7686 53.2836 28.9924 53.2836 29.2184C53.2836 29.4444 53.2391 29.6681 53.1526 29.8769C53.0662 30.0857 52.9394 30.2754 52.7796 30.4352C52.6198 30.595 52.4301 30.7218 52.2213 30.8083C52.0125 30.8948 51.7887 30.9393 51.5627 30.9393C51.3367 30.9393 51.1129 30.8948 50.9041 30.8083C50.6954 30.7218 50.5056 30.595 50.3458 30.4352L27.5002 7.58618L10.3127 24.7737V46.4059C10.3127 46.8617 10.4938 47.2989 10.8161 47.6212C11.1385 47.9435 11.5756 48.1246 12.0315 48.1246H25.7815C26.2373 48.1246 26.6745 48.3057 26.9968 48.628C27.3191 48.9504 27.5002 49.3875 27.5002 49.8434C27.5002 50.2992 27.3191 50.7364 26.9968 51.0587C26.6745 51.381 26.2373 51.5621 25.7815 51.5621H12.0315C10.6639 51.5621 9.35243 51.0189 8.38545 50.0519C7.41846 49.0849 6.87522 47.7734 6.87522 46.4059V28.2112L4.65459 30.4352C4.49479 30.595 4.30508 30.7218 4.09629 30.8083C3.88749 30.8948 3.66371 30.9393 3.43772 30.9393C3.21172 30.9393 2.98794 30.8948 2.77915 30.8083C2.57036 30.7218 2.38065 30.595 2.22084 30.4352C2.06104 30.2754 1.93428 30.0857 1.84779 29.8769C1.76131 29.6681 1.7168 29.4444 1.7168 29.2184C1.7168 28.9924 1.76131 28.7686 1.84779 28.5598C1.93428 28.351 2.06104 28.1613 2.22084 28.0015L25.0699 5.15587Z" fill="#E58A7B"/>
<path d="M42.9688 55C46.1596 55 49.2198 53.7324 51.4761 51.4761C53.7324 49.2198 55 46.1596 55 42.9688C55 39.7779 53.7324 36.7177 51.4761 34.4614C49.2198 32.2051 46.1596 30.9375 42.9688 30.9375C39.7779 30.9375 36.7177 32.2051 34.4614 34.4614C32.2051 36.7177 30.9375 39.7779 30.9375 42.9688C30.9375 46.1596 32.2051 49.2198 34.4614 51.4761C36.7177 53.7324 39.7779 55 42.9688 55ZM44.1856 34.8769L49.3419 40.0331C49.6646 40.3559 49.8459 40.7936 49.8459 41.25C49.8459 41.7064 49.6646 42.1441 49.3419 42.4669C49.0191 42.7896 48.5814 42.9709 48.125 42.9709C47.6686 42.9709 47.2309 42.7896 46.9081 42.4669L44.6875 40.2428V49.8438C44.6875 50.2996 44.5064 50.7368 44.1841 51.0591C43.8618 51.3814 43.4246 51.5625 42.9688 51.5625C42.5129 51.5625 42.0757 51.3814 41.7534 51.0591C41.4311 50.7368 41.25 50.2996 41.25 49.8438V40.2428L39.0294 42.4669C38.7071 42.7896 38.2698 42.9711 37.8137 42.9714C37.3576 42.9717 36.9201 42.7909 36.5973 42.4686C36.2746 42.1463 36.0931 41.709 36.0928 41.2529C36.0925 40.7968 36.2733 40.3593 36.5956 40.0366L41.7519 34.8803C41.9115 34.7203 42.1012 34.5933 42.31 34.5066C42.5188 34.42 42.7427 34.3754 42.9688 34.3754C43.1948 34.3754 43.4187 34.42 43.6275 34.5066C43.8363 34.5933 44.026 34.7203 44.1856 34.8803V34.8769Z" fill="#6A00C6"/>
</g>
<defs>
<clipPath id="clip0_38_499">
<rect width="55" height="55" fill="white"/>
</clipPath>
</defs>
</svg>
