<svg width="33" height="32" viewBox="0 0 33 32" fill="none" xmlns="http://www.w3.org/2000/svg">
<path d="M25.8015 6.64531C24.5919 5.42341 23.151 4.4546 21.563 3.79539C19.975 3.13618 18.2717 2.79975 16.5523 2.80574C9.34815 2.80574 3.47665 8.67724 3.47665 15.8814C3.47665 18.1904 4.08359 20.4334 5.21831 22.4126L3.37109 29.1945L10.2981 27.3737C12.2113 28.416 14.362 28.9702 16.5523 28.9702C23.7564 28.9702 29.6279 23.0987 29.6279 15.8946C29.6279 12.3981 28.2689 9.11265 25.8015 6.64531ZM16.5523 26.7535C14.5995 26.7535 12.6863 26.2258 11.0106 25.2362L10.6148 24.9987L6.49816 26.0806L7.59329 22.0695L7.32941 21.6605C6.24449 19.928 5.66842 17.9255 5.66692 15.8814C5.66692 9.89112 10.5488 5.0092 16.5391 5.0092C19.4418 5.0092 22.1731 6.14392 24.2182 8.20224C25.2309 9.21025 26.0334 10.4092 26.5792 11.7297C27.125 13.0501 27.4034 14.4658 27.3981 15.8946C27.4244 21.8848 22.5425 26.7535 16.5523 26.7535ZM22.5161 18.6258C22.1863 18.4675 20.5766 17.6758 20.2863 17.5571C19.9828 17.4515 19.7717 17.3987 19.5474 17.7154C19.3231 18.0452 18.703 18.7841 18.5182 18.9952C18.3335 19.2195 18.1356 19.2459 17.8057 19.0744C17.4759 18.9161 16.4203 18.5598 15.1801 17.4515C14.2037 16.5807 13.5572 15.5119 13.3592 15.1821C13.1745 14.8522 13.3328 14.6807 13.5044 14.5092C13.6495 14.364 13.8342 14.1265 13.9926 13.9418C14.1509 13.7571 14.2169 13.6119 14.3224 13.4008C14.428 13.1765 14.3752 12.9918 14.296 12.8335C14.2169 12.6751 13.5572 11.0654 13.2933 10.4057C13.0294 9.77237 12.7523 9.85154 12.5544 9.83835H11.921C11.6967 9.83835 11.3537 9.91751 11.0502 10.2474C10.7599 10.5772 9.9155 11.3689 9.9155 12.9786C9.9155 14.5883 11.0898 16.1453 11.2481 16.3564C11.4065 16.5807 13.5572 19.8793 16.8294 21.2911C17.6078 21.6341 18.2148 21.832 18.6898 21.9772C19.4682 22.2279 20.1807 22.1883 20.7481 22.1091C21.3814 22.0168 22.6877 21.3175 22.9515 20.5522C23.2286 19.7869 23.2286 19.1404 23.1363 18.9952C23.0439 18.8501 22.846 18.7841 22.5161 18.6258Z" fill="white"/>
</svg>
