<svg width="21" height="20" viewBox="0 0 21 20" fill="none" xmlns="http://www.w3.org/2000/svg">
<path d="M17.6689 2.91005C16.7475 1.98398 15.65 1.24972 14.4404 0.750108C13.2308 0.250493 11.9334 -0.0044801 10.6237 5.95695e-05C5.13626 5.95695e-05 0.663898 4.45005 0.663898 9.91003C0.663898 11.66 1.12621 13.36 1.99053 14.86L0.583496 20L5.85988 18.62C7.31716 19.41 8.95535 19.83 10.6237 19.83C16.1111 19.83 20.5835 15.38 20.5835 9.92003C20.5835 7.27004 19.5483 4.78005 17.6689 2.91005ZM10.6237 18.15C9.13626 18.15 7.67897 17.75 6.40259 17L6.10108 16.82L2.96541 17.64L3.79958 14.6L3.59857 14.29C2.77219 12.977 2.33339 11.4593 2.33224 9.91003C2.33224 5.37004 6.05083 1.67005 10.6136 1.67005C12.8247 1.67005 14.9051 2.53005 16.4629 4.09005C17.2342 4.85401 17.8455 5.7627 18.2613 6.76346C18.677 7.76422 18.8891 8.83714 18.885 9.92003C18.9051 14.46 15.1865 18.15 10.6237 18.15ZM15.1664 11.99C14.9152 11.87 13.689 11.27 13.4679 11.18C13.2368 11.1 13.076 11.06 12.9051 11.3C12.7342 11.55 12.2619 12.11 12.1212 12.27C11.9805 12.44 11.8297 12.46 11.5785 12.33C11.3272 12.21 10.5232 11.94 9.57847 11.1C8.83475 10.44 8.34229 9.63003 8.19154 9.38003C8.05083 9.13003 8.17143 9.00003 8.30209 8.87003C8.41264 8.76003 8.55334 8.58003 8.67395 8.44003C8.79455 8.30003 8.8448 8.19003 8.9252 8.03004C9.00561 7.86004 8.9654 7.72004 8.9051 7.60004C8.8448 7.48004 8.34229 6.26004 8.14128 5.76004C7.94028 5.28004 7.72922 5.34004 7.57847 5.33004H7.09606C6.9252 5.33004 6.6639 5.39004 6.43274 5.64004C6.21164 5.89004 5.56842 6.49004 5.56842 7.71004C5.56842 8.93003 6.46289 10.11 6.5835 10.27C6.7041 10.44 8.34229 12.94 10.8348 14.01C11.4277 14.27 11.89 14.42 12.2518 14.53C12.8448 14.72 13.3875 14.69 13.8197 14.63C14.3021 14.56 15.2971 14.03 15.4981 13.45C15.7091 12.87 15.7091 12.38 15.6388 12.27C15.5684 12.16 15.4177 12.11 15.1664 11.99Z" fill="black"/>
</svg>
