<svg width="52" height="53" viewBox="0 0 52 53" fill="none" xmlns="http://www.w3.org/2000/svg">
<path d="M33.5833 37.333C30.5499 37.333 28.1666 34.9497 28.1666 31.9163C28.1666 28.883 30.5499 26.4997 33.5833 26.4997C36.6166 26.4997 38.9999 28.883 38.9999 31.9163C38.9999 34.9497 36.6166 37.333 33.5833 37.333Z" fill="#45CD81"/>
<path fill-rule="evenodd" clip-rule="evenodd" d="M43.3333 31.9163C43.3333 33.8663 42.6833 35.5997 41.8166 37.1163L48.7499 44.0497L45.7166 47.083L38.7833 40.1497C37.2666 41.0163 35.5333 41.6663 33.5833 41.6663C28.1666 41.6663 23.8333 37.333 23.8333 31.9163C23.8333 26.4997 28.1666 22.1663 33.5833 22.1663C38.9999 22.1663 43.3333 26.4997 43.3333 31.9163ZM28.1666 31.9163C28.1666 34.9497 30.5499 37.333 33.5833 37.333C36.6166 37.333 38.9999 34.9497 38.9999 31.9163C38.9999 28.883 36.6166 26.4997 33.5833 26.4997C30.5499 26.4997 28.1666 28.883 28.1666 31.9163Z" fill="white"/>
<path d="M25.9999 43.833V48.1663C14.0399 48.1663 4.33325 38.4597 4.33325 26.4997C4.33325 14.5397 14.0399 4.83301 25.9999 4.83301C36.4866 4.83301 45.2183 12.2863 47.2333 22.1663H42.7483C42.0725 19.5487 40.7938 17.1253 39.0143 15.09C37.2348 13.0547 35.0039 11.4639 32.4999 10.4447V11.333C32.4999 13.7163 30.5499 15.6663 28.1666 15.6663H23.8333V19.9997C23.8333 21.1913 22.8583 22.1663 21.6666 22.1663H17.3333V26.4997H21.6666V32.9997H19.4999L9.12159 22.6213C8.83992 23.878 8.66659 25.1563 8.66659 26.4997C8.66659 36.0547 16.4449 43.833 25.9999 43.833Z" fill="white"/>
</svg>
