<svg width="57" height="57" viewBox="0 0 57 57" fill="none" xmlns="http://www.w3.org/2000/svg">
<path d="M9.61481 31.413C9.40881 31.2561 9.20714 31.0935 9.01004 30.9256C9.15083 31.1513 9.35717 31.3263 9.61481 31.413ZM11.1367 8.86946H45.7403V29.1136C46.9532 28.441 47.6047 27.9827 48.0511 27.6891V7.71065C48.0508 7.40396 47.9287 7.10994 47.7117 6.89319C47.4948 6.67644 47.2006 6.55469 46.894 6.55469H9.97961C9.3395 6.55469 8.8208 7.07339 8.8208 7.71065V27.7404C9.26027 28.0175 9.89126 28.482 11.1367 29.1768V8.86946Z" fill="white"/>
<path d="M50.041 27.3478C49.7428 27.1101 49.3302 27.1112 48.6752 27.3478C48.4843 27.4173 48.2911 27.533 48.0511 27.6898C47.6048 27.9833 46.9538 28.4416 45.7403 29.1142C45.3658 29.3194 44.9577 29.5406 44.4629 29.7885C44.3079 29.866 44.1586 29.9293 44.0052 30.0034C41.2162 31.3167 38.7076 31.7385 38.7076 31.7385H30.3999C30.2426 31.7385 29.7387 31.8354 29.497 32.1996C29.2588 32.5633 29.2987 33.1629 29.2987 33.1629V34.1752C29.5985 34.3878 29.9154 34.5782 30.2648 34.6985C32.7694 35.5523 34.464 34.8079 35.2033 33.7705C36.068 32.5541 36.508 31.873 37.4576 32.2287C38.4073 32.5844 37.4576 34.8963 36.272 36.0836C35.0836 37.2715 33.6592 38.2205 31.6436 38.2205C30.7966 38.2205 29.9758 38.0934 29.2987 37.9492V46.5739C29.2987 49.0078 31.8853 50.3085 33.6637 50.3085C35.4415 50.3085 39.0029 49.3007 40.7243 45.0286C42.444 40.7576 40.6075 35.1214 40.6075 35.1214C40.6075 35.1214 43.3936 33.8726 46.3023 32.0354C49.2082 30.1972 49.9817 28.4752 50.041 28.2335C50.098 27.9902 50.3351 27.586 50.041 27.3478Z" fill="#FDE101"/>
<path fill-rule="evenodd" clip-rule="evenodd" d="M31.1292 21.1098C32.0974 20.1417 33.4104 19.5978 34.7796 19.5977C37.6285 19.5977 39.9393 21.9101 39.9393 24.7601C39.9393 27.6096 37.6285 29.9221 34.7796 29.9221C31.9279 29.9221 29.6166 27.6096 29.6166 24.7601C29.6169 23.391 30.1609 22.078 31.1292 21.1098Z" fill="white"/>
<path d="M36.2719 36.0832C37.4575 34.8959 38.4071 32.584 37.4575 32.2283C36.5079 31.8726 36.0678 32.5538 35.2031 33.7701C34.4638 34.8075 32.7692 35.552 30.2647 34.6981C29.9152 34.5778 29.5983 34.3874 29.2985 34.1748C28.0616 33.2953 27.2197 31.8726 26.6001 31.8726H18.2924C18.2924 31.8726 15.9879 31.4827 13.3425 30.296C13.0769 30.1763 12.8095 30.0577 12.5382 29.9215C12.0652 29.6844 11.5979 29.4362 11.1366 29.1771C9.89114 28.4822 9.26015 28.0183 8.82068 27.7407C8.63771 27.625 8.48267 27.5383 8.32421 27.4813C7.67213 27.2442 7.2566 27.2442 6.95963 27.4813C6.66437 27.7196 6.90035 28.1243 6.95963 28.3665C7.00523 28.5518 7.48004 29.6114 9.00935 30.9258C9.54274 31.379 10.1071 31.7944 10.6983 32.169C13.6041 34.0084 16.3931 35.2538 16.3931 35.2538C16.3931 35.2538 14.5537 40.8889 16.2763 45.161C17.9965 49.4326 21.5562 50.4449 23.3357 50.4449C25.1158 50.4449 27.7025 49.1356 27.7025 46.7034V37.5088C27.7025 37.5088 28.3591 37.7482 29.2979 37.9482C29.9751 38.0924 30.7959 38.2196 31.6429 38.2196C33.659 38.2201 35.0834 37.2711 36.2719 36.0832Z" fill="#45CD81"/>
<path d="M22.5401 19.5977C19.6901 19.5977 17.3799 21.9101 17.3799 24.7601C17.3799 27.6096 19.6895 29.9221 22.5401 29.9221C25.3918 29.9221 27.7032 27.6096 27.7032 24.7601C27.7032 21.9101 25.3918 19.5977 22.5401 19.5977Z" fill="white"/>
</svg>
